<svg xmlns="http://www.w3.org/2000/svg" width="631" height="38" viewBox="0 0 631 38"><defs><style>.a,.b{fill:#0d3bd1;}.a,.e{font-size:12px;font-family:SourceHanSansJP-Bold, Source Han Sans JP;}.a,.c,.e,.g{font-weight:700;}.c,.f{fill:#fff;}.c,.g{font-size:16px;font-family:IBMPlexSans-Bold, IBM Plex Sans;}.d,.i{fill:none;}.d,.f{stroke:#1a1a1a;}.d{stroke-miterlimit:10;stroke-width:3px;fill-rule:evenodd;}.e,.g{fill:#1a1a1a;}.f{stroke-width:2px;}.h{stroke:none;}</style></defs><g transform="translate(-97 -133)"><text class="a" transform="translate(151 149)"><tspan x="0" y="0">モニター申し込み</tspan><tspan x="0" y="16">フォーム入力</tspan></text><g transform="translate(97 133)"><circle class="b" cx="19" cy="19" r="19"/><text class="c" transform="translate(19 25)"><tspan x="-4.8" y="0">1</tspan></text></g><g transform="translate(287 142)"><path class="d" d="M767.815,281.222l10,10-10,10" transform="translate(-767.815 -281.222)"/></g><g transform="translate(240)"><text class="e" transform="translate(152 157)"><tspan x="0" y="0">お申し込み情報入力</tspan></text><g transform="translate(97 133)"><g class="f"><circle class="h" cx="19" cy="19" r="19"/><circle class="i" cx="19" cy="19" r="18"/></g><text class="g" transform="translate(19 25)"><tspan x="-4.8" y="0">2</tspan></text></g></g><g transform="translate(540 142)"><path class="d" d="M767.815,281.222l10,10-10,10" transform="translate(-767.815 -281.222)"/></g><g transform="translate(493)"><text class="e" transform="translate(151 157)"><tspan x="0" y="0">お申し込み完了</tspan></text><g transform="translate(97 133)"><g class="f"><circle class="h" cx="19" cy="19" r="19"/><circle class="i" cx="19" cy="19" r="18"/></g><text class="g" transform="translate(19 25)"><tspan x="-4.8" y="0">3</tspan></text></g></g></g></svg>